# xmcd
#
# Track frame offsets:
#	150
#	31287
#	50797
#	66174
#	107946
#	132686
#	148460
#	198542
#	217363
#
# Disc length: 3043 seconds
#
# Revision: 0
# Processed by: cddbd v1.5.2PL0 Copyright (c) Steve Scherf et al.
# Submitted via: dBpowerAMP V4.0
#
DISCID=a40be109
DTITLE=BLOOMFIELD/COOPER/STILLS - Super Session
DYEAR=2001
DGENRE=Blues
TTITLE0=Albert's Shuffle
TTITLE1=Stop
TTITLE2=Man's Temptation
TTITLE3=His Holy Modal Majesty
TTITLE4=Really
TTITLE5=It Takes A Lot To Laugh,It Takes A Train To Cry
TTITLE6=Season Of The Witch
TTITLE7=You Don't Love Me
TTITLE8=Harvey's Tune
EXTD=
EXTT0=
EXTT1=
EXTT2=
EXTT3=
EXTT4=
EXTT5=
EXTT6=
EXTT7=
EXTT8=
PLAYORDER=
